<svg xmlns="http://www.w3.org/2000/svg" width="603.500" height="107.000" viewBox="0 0 603.500 107.000" role="img" aria-labelledby="title description">
<title id="title">SUSHIWAIT</title>
<desc id="description">SUSHIWAIT title set in Montserrat Light.</desc>
<path fill="#111827" transform="translate(12.900 88.500) scale(1 -1)" d="M30.600 -0.500Q22.800 -0.500 15.850 2.150Q8.900 4.800 5.100 9.000L7.400 12.800Q11.000 9.100 17.200 6.550Q23.400 4.000 30.500 4.000Q41.000 4.000 45.850 8.000Q50.700 12.000 50.700 17.700Q50.700 22.200 48.300 24.900Q45.900 27.600 42.000 29.200Q38.100 30.800 33.450 31.900Q28.800 33.000 24.150 34.250Q19.500 35.500 15.600 37.500Q11.700 39.500 9.350 42.950Q7.000 46.400 7.000 51.900Q7.000 56.900 9.600 61.100Q12.200 65.300 17.700 67.900Q23.200 70.500 31.800 70.500Q37.600 70.500 43.250 68.800Q48.900 67.100 52.900 64.200L51.000 60.100Q46.600 63.100 41.550 64.550Q36.500 66.000 31.800 66.000Q21.600 66.000 16.850 61.900Q12.100 57.800 12.100 52.000Q12.100 47.500 14.450 44.800Q16.800 42.100 20.700 40.500Q24.600 38.900 29.250 37.800Q33.900 36.700 38.550 35.450Q43.200 34.200 47.100 32.200Q51.000 30.200 53.400 26.800Q55.800 23.400 55.800 18.000Q55.800 13.000 53.100 8.800Q50.400 4.600 44.850 2.050Q39.300 -0.500 30.600 -0.500ZM100.500 -0.500Q87.500 -0.500 80.000 7.100Q72.500 14.700 72.500 29.700L72.500 70.000L77.600 70.000L77.600 29.900Q77.600 16.800 83.600 10.500Q89.600 4.200 100.600 4.200Q111.500 4.200 117.500 10.500Q123.500 16.800 123.500 29.900L123.500 70.000L128.600 70.000L128.600 29.700Q128.600 14.700 121.100 7.100Q113.600 -0.500 100.500 -0.500ZM170.800 -0.500Q163.000 -0.500 156.050 2.150Q149.100 4.800 145.300 9.000L147.600 12.800Q151.200 9.100 157.400 6.550Q163.600 4.000 170.700 4.000Q181.200 4.000 186.050 8.000Q190.900 12.000 190.900 17.700Q190.900 22.200 188.500 24.900Q186.100 27.600 182.200 29.200Q178.300 30.800 173.650 31.900Q169.000 33.000 164.350 34.250Q159.700 35.500 155.800 37.500Q151.900 39.500 149.550 42.950Q147.200 46.400 147.200 51.900Q147.200 56.900 149.800 61.100Q152.400 65.300 157.900 67.900Q163.400 70.500 172.000 70.500Q177.800 70.500 183.450 68.800Q189.100 67.100 193.100 64.200L191.200 60.100Q186.800 63.100 181.750 64.550Q176.700 66.000 172.000 66.000Q161.800 66.000 157.050 61.900Q152.300 57.800 152.300 52.000Q152.300 47.500 154.650 44.800Q157.000 42.100 160.900 40.500Q164.800 38.900 169.450 37.800Q174.100 36.700 178.750 35.450Q183.400 34.200 187.300 32.200Q191.200 30.200 193.600 26.800Q196.000 23.400 196.000 18.000Q196.000 13.000 193.300 8.800Q190.600 4.600 185.050 2.050Q179.500 -0.500 170.800 -0.500ZM265.200 0.000L265.200 33.300L218.400 33.300L218.400 0.000L213.300 0.000L213.300 70.000L218.400 70.000L218.400 37.800L265.200 37.800L265.200 70.000L270.300 70.000L270.300 0.000ZM294.700 0.000L294.700 70.000L299.800 70.000L299.800 0.000ZM338.300 0.000L314.500 70.000L319.900 70.000L341.200 7.000L363.100 70.000L368.000 70.000L389.800 6.800L411.300 70.000L416.300 70.000L392.600 0.000L387.200 0.000L365.500 62.700L343.700 0.000ZM417.200 0.000L449.400 70.000L454.500 70.000L486.700 0.000L481.200 0.000L472.300 19.700L431.600 19.700L422.700 0.000ZM433.600 24.000L470.300 24.000L451.900 64.400ZM499.400 0.000L499.400 70.000L504.500 70.000L504.500 0.000ZM542.300 0.000L542.300 65.400L517.100 65.400L517.100 70.000L572.600 70.000L572.600 65.400L547.400 65.400L547.400 0.000Z"/>
</svg>